<?xml version="1.0" encoding="utf-8"?>
<!-- Generator: Adobe Illustrator 20.1.0, SVG Export Plug-In . SVG Version: 6.00 Build 0)  -->
<svg version="1.1" id="图层_1" xmlns="http://www.w3.org/2000/svg" xmlns:xlink="http://www.w3.org/1999/xlink" x="0px" y="0px"
	 viewBox="0 0 500 500" enable-background="new 0 0 500 500" xml:space="preserve">
<circle fill="#F46E0B" cx="128.8" cy="111.8" r="41.6"/>
<ellipse fill="#E5E5E5" cx="385.5" cy="112.6" rx="37.9" ry="27"/>
<ellipse fill="#E5E5E5" cx="438.1" cy="103.5" rx="31.3" ry="32.5"/>
<ellipse transform="matrix(0.1563 -0.9877 0.9877 0.1563 264.8615 583.7125)" fill="#E5E5E5" cx="474.1" cy="136.8" rx="30.6" ry="41.9"/>
<ellipse fill="#E5E5E5" cx="433.2" cy="146.2" rx="34.2" ry="28.2"/>
<ellipse fill="#E5E5E5" cx="382.3" cy="152.2" rx="33.4" ry="25.1"/>
<ellipse fill="#E5E5E5" cx="341.3" cy="135.2" rx="33.4" ry="28.5"/>
<ellipse fill="#E5E5E5" cx="148.8" cy="114.3" rx="37.9" ry="27"/>
<ellipse fill="#E5E5E5" cx="201.4" cy="105.2" rx="31.3" ry="32.5"/>
<ellipse transform="matrix(0.1563 -0.9877 0.9877 0.1563 63.3712 351.402)" fill="#E5E5E5" cx="237.4" cy="138.6" rx="30.6" ry="41.9"/>
<ellipse fill="#E5E5E5" cx="196.5" cy="147.9" rx="34.2" ry="28.2"/>
<ellipse fill="#E5E5E5" cx="145.6" cy="153.9" rx="33.4" ry="25.1"/>
<ellipse fill="#E5E5E5" cx="104.6" cy="136.9" rx="33.4" ry="28.5"/>
<ellipse fill="#E5E5E5" cx="-72.6" cy="116" rx="37.9" ry="27"/>
<ellipse fill="#E5E5E5" cx="-20" cy="106.9" rx="31.3" ry="32.5"/>
<ellipse transform="matrix(0.1563 -0.9877 0.9877 0.1563 -125.0696 134.2122)" fill="#E5E5E5" cx="16" cy="140.3" rx="30.6" ry="41.9"/>
<ellipse fill="#E5E5E5" cx="-24.9" cy="149.6" rx="34.2" ry="28.2"/>
<ellipse fill="#E5E5E5" cx="-75.8" cy="155.6" rx="33.4" ry="25.1"/>
<ellipse fill="#E5E5E5" cx="-116.8" cy="138.6" rx="33.4" ry="28.5"/>
</svg>
